<?xml version="1.0" encoding="UTF-8"?>
<svg id="Layer_1" xmlns="http://www.w3.org/2000/svg" version="1.1" xmlns:xlink="http://www.w3.org/1999/xlink" viewBox="0 0 1080 1080">
  <!-- Generator: Adobe Illustrator 30.3.0, SVG Export Plug-In . SVG Version: 2.1.3 Build 182)  -->
  <defs>
    <style>
      .st0 {
        fill: url(#linear-gradient);
        stroke-width: 5.7px;
      }

      .st0, .st1 {
        stroke: #c7206e;
        stroke-miterlimit: 10;
      }

      .st1 {
        fill: url(#linear-gradient1);
        stroke-width: 4.2px;
      }

      .st2 {
        fill: #fff;
      }

      .st3 {
        fill: #c7206e;
      }
    </style>
    <linearGradient id="linear-gradient" x1="540" y1="12.74" x2="540" y2="1067.26" gradientUnits="userSpaceOnUse">
      <stop offset="0" stop-color="#004a6a"/>
      <stop offset="1" stop-color="#00102a"/>
    </linearGradient>
    <linearGradient id="linear-gradient1" x1="540" y1="151.77" x2="540" y2="928.26" xlink:href="#linear-gradient"/>
  </defs>
  <path class="st0" d="M539.98,12.74C248.79,12.74,12.74,248.83,12.74,540.02s236.05,527.24,527.24,527.24,527.28-236.05,527.28-527.24S831.21,12.74,539.98,12.74ZM539.98,961.44c-232.73,0-421.42-188.69-421.42-421.42S307.25,118.56,539.98,118.56s421.46,188.69,421.46,421.46-188.69,421.42-421.46,421.42Z"/>
  <g>
    <path class="st2" d="M175.07,254.56l-11.08,15.1,5.39,7.8-5.86,7.98-27.96-41.5,6.5-8.85,47.98,14.23-5.9,8.04-9.06-2.8ZM167.47,252.16l-19.89-6.16,11.83,17.13,8.05-10.97Z"/>
    <path class="st2" d="M161.56,206.57l37.97,32.32-6.12,7.18-37.97-32.32,6.11-7.18Z"/>
    <path class="st2" d="M188.58,197.24c.67-2.33,1.97-4.47,3.88-6.43,2.23-2.28,4.81-3.79,7.74-4.54,2.93-.75,5.96-.65,9.08.3s6.05,2.76,8.78,5.43,4.62,5.57,5.67,8.7c1.05,3.13,1.25,6.19.6,9.17-.65,2.98-2.09,5.61-4.32,7.89-1.92,1.96-4.01,3.29-6.27,4-2.26.71-4.46.93-6.59.67l16.53,16.16-6.59,6.75-39.42-38.53,6.59-6.75,3.86,3.77c-.37-2.06-.22-4.25.45-6.58ZM206.19,195.8c-1.82-.49-3.56-.49-5.22-.01-1.66.48-3.11,1.35-4.33,2.6-1.19,1.22-2,2.68-2.43,4.36-.43,1.69-.37,3.44.18,5.26.55,1.82,1.62,3.52,3.23,5.09,1.61,1.57,3.33,2.61,5.16,3.11,1.83.5,3.59.52,5.27.06,1.68-.46,3.11-1.31,4.31-2.53,1.23-1.25,2.04-2.73,2.45-4.44.41-1.7.34-3.47-.2-5.29-.54-1.82-1.64-3.53-3.27-5.13-1.61-1.57-3.32-2.6-5.13-3.09Z"/>
    <path class="st2" d="M233.62,156.15c2.48-.47,4.96-.19,7.46.85,2.49,1.04,4.83,2.85,7,5.43l14.12,16.74-7.21,6.08-13.29-15.76c-1.91-2.27-3.95-3.53-6.11-3.79-2.16-.26-4.22.43-6.18,2.08-1.99,1.68-3.05,3.61-3.17,5.8-.12,2.19.77,4.42,2.68,6.68l13.29,15.76-7.21,6.08-32.14-38.12,7.21-6.08,11.08,13.14c-.12-2.02.3-4.03,1.25-6.04.95-2.01,2.37-3.81,4.26-5.4,2.16-1.82,4.48-2.97,6.96-3.45Z"/>
    <path class="st2" d="M251.01,151.43c-.42-3.26-.02-6.27,1.22-9.03,1.23-2.76,3.16-5.05,5.78-6.86,2.29-1.58,4.62-2.51,6.97-2.77,2.36-.26,4.54-.05,6.54.64l-3.03-4.38,7.82-5.4,21.21,30.72-7.82,5.4-3.1-4.49c0,2.13-.56,4.27-1.66,6.43-1.1,2.15-2.8,4.02-5.09,5.61-2.59,1.79-5.4,2.75-8.45,2.89-3.05.14-6.02-.58-8.93-2.14-2.91-1.56-5.45-3.92-7.62-7.06-2.15-3.1-3.43-6.29-3.85-9.54ZM274.65,140.3c-1.67-.84-3.38-1.18-5.14-1.04-1.75.15-3.35.72-4.79,1.71-1.44,1-2.53,2.27-3.26,3.81-.73,1.55-1.02,3.25-.84,5.13.17,1.87.9,3.73,2.17,5.58,1.28,1.85,2.77,3.2,4.49,4.07,1.71.86,3.45,1.24,5.2,1.12,1.75-.12,3.33-.66,4.73-1.63,1.44-1,2.54-2.29,3.3-3.88.76-1.59,1.04-3.31.85-5.17-.19-1.86-.94-3.73-2.24-5.62-1.3-1.88-2.79-3.25-4.46-4.08Z"/>
    <path class="st2" d="M328.06,137.01l-16.58-8.91-.39,18.32-9.31,5.17,1.45-27.93-24.45-13.09,9.49-5.26,16.55,8.85.36-18.23,9.31-5.17-1.43,27.84,24.48,13.15-9.49,5.26Z"/>
    <path class="st2" d="M367.25,71.42c4.19.44,7.89,1.95,11.09,4.54,3.2,2.59,5.66,6.08,7.37,10.47,1.71,4.4,2.26,8.61,1.63,12.63-.62,4.03-2.33,7.62-5.13,10.78-2.79,3.16-6.49,5.64-11.1,7.43l-15.32,5.97-17.07-43.82,15.32-5.97c4.61-1.79,9.01-2.47,13.2-2.03ZM377.1,102c1.53-3.49,1.41-7.52-.37-12.08-1.78-4.56-4.42-7.64-7.94-9.24-3.51-1.6-7.57-1.5-12.18.3l-6.22,2.42,11.28,28.94,6.22-2.42c4.6-1.79,7.67-4.44,9.21-7.93Z"/>
    <path class="st2" d="M427.72,82.4l-26.26,7.41c.95,2.53,2.43,4.31,4.44,5.33,2.01,1.02,4.19,1.2,6.52.54,3.37-.95,5.36-3.08,5.97-6.38l9.79-2.76c-.06,3.75-1.25,7.16-3.56,10.21-2.31,3.06-5.61,5.19-9.89,6.4-3.46.98-6.78,1.08-9.96.32-3.18-.76-5.93-2.33-8.26-4.71-2.33-2.38-4.01-5.4-5.05-9.08-1.05-3.72-1.22-7.19-.49-10.43.72-3.24,2.23-6,4.52-8.28,2.3-2.28,5.22-3.92,8.76-4.92,3.42-.96,6.68-1.09,9.8-.39s5.8,2.2,8.06,4.48c2.25,2.28,3.88,5.17,4.86,8.67.37,1.3.61,2.49.73,3.58ZM416.85,78.89c-.7-2.32-2.07-3.95-4.11-4.9-2.04-.94-4.25-1.08-6.63-.4-2.25.63-3.95,1.85-5.1,3.64s-1.56,3.95-1.22,6.47l17.05-4.82Z"/>
    <path class="st2" d="M444.19,87.39l16.33-3.23,1.5,7.6-26.84,5.31-1.48-7.47,11.73-24.71-15.93,3.15-1.5-7.6,26.57-5.26,1.48,7.47-11.86,24.74Z"/>
    <path class="st2" d="M462.52,47.98c-1.24-.89-1.97-2.12-2.18-3.67-.22-1.56.14-2.93,1.08-4.13.94-1.2,2.24-1.91,3.88-2.15,1.64-.23,3.09.1,4.32.99s1.96,2.12,2.19,3.67c.22,1.56-.14,2.94-1.08,4.13-.94,1.2-2.24,1.91-3.88,2.15-1.65.23-3.09-.1-4.33-.99ZM472.07,52.73l5.21,36.97-9.34,1.32-5.21-36.96,9.34-1.32Z"/>
    <path class="st2" d="M504.23,50.67c2.18.95,3.94,2.25,5.28,3.92l-.38-5.31,9.48-.67,2.65,37.51c.24,3.45-.23,6.58-1.43,9.39-1.2,2.81-3.13,5.11-5.79,6.89-2.67,1.79-5.97,2.82-9.92,3.1-5.29.37-9.71-.55-13.27-2.78-3.56-2.23-5.71-5.45-6.46-9.68l9.34-.66c.61,1.67,1.77,2.95,3.48,3.84,1.71.89,3.72,1.26,6.05,1.09,2.73-.19,4.89-1.17,6.48-2.92,1.59-1.76,2.26-4.29,2.03-7.61l-.41-5.78c-1.09,1.83-2.65,3.41-4.7,4.72s-4.44,2.07-7.17,2.26c-3.14.22-6.06-.38-8.77-1.81-2.71-1.43-4.92-3.56-6.63-6.39-1.71-2.83-2.7-6.15-2.97-9.96-.27-3.76.25-7.15,1.54-10.17,1.29-3.02,3.18-5.4,5.64-7.15,2.46-1.75,5.29-2.74,8.47-2.96,2.78-.2,5.26.18,7.44,1.13ZM508.69,62.11c-1.01-1.57-2.31-2.74-3.89-3.51-1.59-.77-3.25-1.09-5-.96-1.75.12-3.33.66-4.75,1.62-1.42.96-2.53,2.29-3.33,3.98-.8,1.7-1.12,3.67-.97,5.91.16,2.24.76,4.17,1.79,5.78,1.04,1.62,2.34,2.82,3.9,3.61,1.56.79,3.2,1.13,4.9,1.01,1.75-.12,3.35-.68,4.81-1.66,1.46-.98,2.58-2.32,3.36-4.02.78-1.7,1.09-3.69.93-5.98-.16-2.28-.75-4.21-1.76-5.79Z"/>
    <path class="st2" d="M560.55,52.92c2.66,2.88,3.93,6.83,3.8,11.86l-.58,21.89-9.43-.25.55-20.61c.08-2.96-.6-5.26-2.04-6.9-1.44-1.63-3.44-2.48-6-2.55-2.6-.07-4.68.67-6.23,2.23-1.55,1.56-2.36,3.81-2.44,6.78l-.55,20.61-9.43-.25.99-37.32,9.43.25-.12,4.65c1.3-1.58,2.94-2.81,4.92-3.68s4.13-1.27,6.47-1.21c4.45.12,8,1.62,10.67,4.5Z"/>
    <path class="st2" d="M606.63,75.61l-27.1-3.23c-.09,2.7.59,4.91,2.06,6.62,1.47,1.71,3.41,2.71,5.82,3,3.48.41,6.13-.78,7.96-3.6l10.1,1.2c-1.5,3.44-3.9,6.13-7.2,8.07-3.31,1.94-7.17,2.64-11.58,2.11-3.57-.42-6.67-1.6-9.32-3.52-2.64-1.92-4.58-4.43-5.82-7.51s-1.63-6.53-1.18-10.32c.46-3.84,1.64-7.11,3.55-9.82,1.91-2.71,4.36-4.68,7.35-5.91s6.32-1.62,9.98-1.19c3.52.42,6.59,1.55,9.2,3.4,2.61,1.85,4.51,4.26,5.72,7.23,1.21,2.97,1.6,6.26,1.16,9.88-.16,1.34-.39,2.53-.7,3.58ZM597.95,68.19c.24-2.41-.4-4.45-1.92-6.1-1.52-1.65-3.51-2.62-5.96-2.92-2.32-.28-4.36.19-6.11,1.41-1.75,1.22-2.95,3.05-3.61,5.51l17.6,2.1Z"/>
    <path class="st2" d="M631.06,59.79c2.14-.7,4.44-.79,6.91-.28l-2.03,9.7-2.44-.51c-2.9-.61-5.23-.38-6.99.67-1.76,1.06-2.99,3.28-3.7,6.66l-3.8,18.2-9.23-1.93,7.64-36.54,9.24,1.93-1.19,5.67c1.59-1.69,3.46-2.88,5.6-3.58Z"/>
    <path class="st2" d="M645.63,92.23l16.11,4.19-1.95,7.5-26.48-6.88,1.91-7.37,21.31-17.16-15.72-4.08,1.95-7.5,26.22,6.81-1.91,7.37-21.44,17.12Z"/>
    <path class="st2" d="M686.82,111.62c-2.05-1.99-3.41-4.25-4.08-6.77-.67-2.52-.51-5.13.48-7.83l9.43,3.63c-.57,1.85-.48,3.52.27,5.01.75,1.49,2.13,2.62,4.14,3.4,2.05.79,3.86.92,5.41.38,1.55-.53,2.64-1.6,3.25-3.19.5-1.3.51-2.52.04-3.67-.48-1.14-1.22-2.19-2.23-3.13-1.01-.94-2.45-2.11-4.32-3.5-2.53-1.93-4.53-3.65-5.99-5.16-1.47-1.5-2.52-3.33-3.16-5.48-.64-2.15-.43-4.6.63-7.37,1-2.6,2.52-4.61,4.56-6.04,2.04-1.43,4.43-2.21,7.18-2.33,2.74-.12,5.62.39,8.64,1.56,4.53,1.74,7.78,4.26,9.77,7.55,1.98,3.29,2.36,6.96,1.14,11.02l-9.68-3.72c.49-1.54.34-3.03-.48-4.48-.82-1.44-2.21-2.55-4.18-3.3-1.72-.66-3.26-.75-4.63-.26-1.37.49-2.37,1.57-3.01,3.24-.45,1.17-.44,2.3.04,3.37s1.2,2.07,2.17,3c.97.93,2.38,2.11,4.23,3.54,2.53,1.94,4.53,3.67,6.01,5.2,1.48,1.53,2.55,3.39,3.2,5.56.65,2.18.46,4.63-.59,7.35-.9,2.35-2.35,4.29-4.34,5.84-1.99,1.54-4.39,2.46-7.19,2.76-2.81.29-5.83-.18-9.05-1.42-3.06-1.18-5.62-2.76-7.67-4.75Z"/>
    <path class="st2" d="M738.55,102.64l-7.68,16.34c-.54,1.14-.65,2.09-.34,2.86.31.77,1.11,1.45,2.42,2.07l3.96,1.86-3.38,7.2-5.37-2.52c-7.2-3.38-9.15-8.57-5.86-15.56l7.66-16.28-4.02-1.89,3.3-7.01,4.02,1.89,3.93-8.35,8.6,4.04-3.93,8.35,7.56,3.55-3.3,7.01-7.56-3.55Z"/>
    <path class="st2" d="M787.19,119.96l-18.41,32.47-8.26-4.69,2.33-4.1c-1.85.81-3.86,1.13-6.01.97-2.16-.16-4.23-.81-6.22-1.94-2.54-1.44-4.48-3.25-5.83-5.43-1.35-2.18-1.98-4.63-1.91-7.36.07-2.72.93-5.53,2.57-8.42l10.8-19.05,8.21,4.65-10.14,17.88c-1.46,2.58-1.94,4.93-1.44,7.05.5,2.12,1.87,3.81,4.1,5.07,2.27,1.28,4.44,1.6,6.51.94,2.08-.66,3.85-2.27,5.31-4.85l10.14-17.88,8.27,4.69Z"/>
    <path class="st2" d="M791.17,132.48c2.91-1.52,5.88-2.18,8.92-1.96,3.03.21,5.86,1.24,8.47,3.07,1.98,1.4,3.57,3.16,4.76,5.29,1.19,2.13,1.82,4.29,1.88,6.47l10.19-14.5,7.83,5.5-28.69,40.78-7.83-5.5,3.18-4.52c-2.02.83-4.21,1.1-6.58.81-2.37-.3-4.7-1.25-6.98-2.85-2.57-1.81-4.46-4.13-5.66-6.95-1.2-2.82-1.57-5.87-1.11-9.14.46-3.27,1.79-6.47,3.99-9.59,2.17-3.09,4.71-5.39,7.62-6.91ZM809.79,150.81c.21-1.86-.06-3.58-.81-5.18-.75-1.6-1.83-2.9-3.27-3.9s-3-1.59-4.71-1.74-3.4.17-5.1.98c-1.7.81-3.19,2.14-4.48,3.97-1.29,1.84-2.05,3.71-2.26,5.62-.22,1.91.03,3.66.75,5.26.71,1.6,1.77,2.89,3.16,3.87,1.43,1.01,3.03,1.59,4.78,1.76,1.75.16,3.47-.17,5.15-.99,1.68-.82,3.18-2.17,4.49-4.05,1.32-1.87,2.08-3.74,2.29-5.6Z"/>
    <path class="st2" d="M841.18,159.08l-23.54,28.97-7.32-5.95,23.54-28.97,7.32,5.95ZM838.16,148.85c-.19-1.51.21-2.88,1.21-4.1.99-1.22,2.25-1.89,3.77-2.02,1.52-.13,2.92.34,4.21,1.38s2.03,2.33,2.22,3.84c.19,1.51-.21,2.88-1.2,4.1-.99,1.22-2.25,1.89-3.77,2.02-1.52.12-2.92-.34-4.21-1.38-1.29-1.05-2.03-2.33-2.22-3.84Z"/>
    <path class="st2" d="M830.01,196.2c-1.02-3.12-1.14-6.31-.36-9.57.79-3.26,2.48-6.28,5.08-9.08,2.6-2.8,5.51-4.69,8.73-5.69,3.22-.99,6.45-1.08,9.67-.26,3.22.82,6.15,2.45,8.79,4.9,2.63,2.44,4.48,5.25,5.53,8.4,1.05,3.16,1.21,6.38.45,9.66-.75,3.29-2.43,6.33-5.03,9.13-2.6,2.8-5.52,4.68-8.78,5.64-3.26.96-6.5,1.03-9.74.19-3.24-.83-6.19-2.49-8.86-4.96-2.63-2.45-4.46-5.23-5.48-8.36ZM845.47,200.9c1.67.41,3.4.32,5.19-.29,1.79-.61,3.49-1.78,5.11-3.53,2.42-2.6,3.59-5.23,3.52-7.9-.07-2.67-1.09-4.92-3.06-6.75-1.98-1.83-4.28-2.67-6.91-2.51-2.63.16-5.16,1.54-7.57,4.14-2.42,2.6-3.62,5.2-3.62,7.81,0,2.61.99,4.83,2.96,6.66,1.25,1.16,2.71,1.95,4.38,2.36Z"/>
  </g>
  <g>
    <path class="st2" d="M62.06,454.05l3.83-18.34-8.14-4.87,2.02-9.7,42.65,26.18-2.25,10.75-49.56,6.93,2.04-9.76,9.41-1.2ZM69.97,453.08l20.65-2.64-17.87-10.68-2.78,13.32Z"/>
    <path class="st2" d="M98.03,489.07l-49.42-6.67,1.26-9.35,49.42,6.67-1.26,9.35Z"/>
    <path class="st2" d="M82.27,510c1,2.2,1.42,4.67,1.24,7.41-.21,3.18-1.18,6.01-2.92,8.49-1.74,2.47-4.1,4.37-7.09,5.68-2.99,1.31-6.39,1.85-10.2,1.6-3.81-.25-7.14-1.22-9.97-2.91-2.84-1.69-4.98-3.88-6.43-6.56-1.45-2.68-2.07-5.62-1.86-8.8.18-2.73.9-5.11,2.15-7.12,1.26-2.01,2.78-3.61,4.57-4.8l-23.06-1.5.61-9.41,55,3.58-.61,9.41-5.38-.35c1.62,1.32,2.94,3.08,3.94,5.29ZM69.84,522.56c1.7-.81,3.02-1.94,3.97-3.39.95-1.45,1.48-3.04,1.59-4.79.11-1.7-.22-3.33-1-4.89-.78-1.56-1.97-2.85-3.56-3.88-1.6-1.03-3.52-1.61-5.76-1.76-2.24-.15-4.22.19-5.94,1-1.72.81-3.06,1.94-4.04,3.38-.97,1.44-1.51,3.02-1.62,4.72-.11,1.75.23,3.4,1.03,4.96.8,1.56,2,2.85,3.6,3.88,1.6,1.03,3.54,1.62,5.83,1.76,2.24.15,4.21-.19,5.91-1Z"/>
    <path class="st2" d="M81.46,568.55c-1.16,2.24-2.93,4.01-5.29,5.33-2.36,1.31-5.23,2.02-8.59,2.13l-21.89.71-.3-9.43,20.61-.67c2.96-.1,5.22-.91,6.76-2.44,1.55-1.53,2.28-3.58,2.2-6.14-.08-2.6-.95-4.63-2.59-6.08-1.64-1.45-3.95-2.13-6.91-2.04l-20.61.67-.3-9.43,49.84-1.61.3,9.43-17.17.55c1.66,1.16,2.98,2.74,3.96,4.73.99,1.99,1.52,4.22,1.6,6.69.09,2.83-.45,5.36-1.61,7.6Z"/>
    <path class="st2" d="M75.16,584.05c3.09,1.11,5.58,2.85,7.47,5.21,1.89,2.36,3.04,5.12,3.46,8.28.36,2.76.12,5.25-.73,7.47s-2.03,4.06-3.56,5.53l5.28-.69,1.23,9.42-37.02,4.82-1.23-9.42,5.41-.71c-1.89-.98-3.55-2.45-4.96-4.42-1.41-1.97-2.3-4.33-2.66-7.1-.41-3.12.03-6.06,1.29-8.83,1.27-2.77,3.27-5.09,5.99-6.96,2.72-1.87,5.98-3.05,9.76-3.55,3.74-.49,7.16-.17,10.25.94ZM74.25,610.16c1.51-1.1,2.6-2.47,3.27-4.1.67-1.63.89-3.31.67-5.05s-.86-3.29-1.9-4.64c-1.04-1.36-2.43-2.39-4.17-3.09-1.75-.7-3.73-.91-5.96-.62-2.23.29-4.12,1-5.67,2.13-1.55,1.13-2.68,2.5-3.37,4.11s-.93,3.26-.71,4.95c.23,1.74.87,3.31,1.94,4.71,1.07,1.4,2.47,2.44,4.21,3.12,1.74.68,3.75.87,6.02.57,2.27-.3,4.16-1,5.67-2.1Z"/>
    <path class="st2" d="M59.73,662.92l13.12-13.5-17.51-5.4-2.41-10.37,26.46,9.07,19.3-19.92,2.46,10.57-13.05,13.48,17.43,5.35,2.41,10.37-26.38-9.02-19.37,19.93-2.46-10.57Z"/>
    <path class="st2" d="M121.71,710.63c-.47,4.19-2.02,7.88-4.63,11.06-2.61,3.18-6.12,5.61-10.53,7.28-4.41,1.68-8.62,2.18-12.65,1.53-4.02-.66-7.6-2.4-10.74-5.22-3.14-2.82-5.58-6.54-7.34-11.16l-5.84-15.37,43.96-16.71,5.84,15.37c1.75,4.62,2.4,9.02,1.92,13.22ZM91.05,720.23c3.48,1.56,7.5,1.47,12.08-.27,4.58-1.74,7.68-4.36,9.3-7.86s1.56-7.56-.2-12.18l-2.37-6.24-29.04,11.04,2.37,6.24c1.76,4.62,4.37,7.71,7.85,9.27Z"/>
    <path class="st2" d="M118.02,769.65l-12.07-24.48c-2.32,1.39-3.79,3.17-4.43,5.34-.64,2.16-.42,4.34.66,6.51,1.55,3.14,4,4.71,7.36,4.71l4.5,9.13c-3.7.62-7.26.07-10.69-1.64-3.43-1.72-6.12-4.57-8.09-8.56-1.59-3.22-2.3-6.47-2.13-9.73.17-3.26,1.21-6.26,3.12-8.98,1.91-2.72,4.58-4.93,8.01-6.61,3.46-1.71,6.85-2.5,10.17-2.38,3.31.12,6.3,1.1,8.96,2.94,2.66,1.84,4.81,4.42,6.44,7.72,1.57,3.18,2.29,6.37,2.16,9.56-.13,3.19-1.11,6.11-2.94,8.74-1.83,2.63-4.38,4.75-7.64,6.36-1.21.6-2.34,1.05-3.38,1.37ZM119.5,758.32c2.16-1.11,3.51-2.76,4.07-4.93.55-2.18.29-4.37-.81-6.59-1.03-2.09-2.54-3.55-4.51-4.35-1.97-.8-4.17-.81-6.58-.02l7.84,15.9Z"/>
    <path class="st2" d="M119.43,787.89l8.52,14.3-6.66,3.96-14-23.5,6.54-3.9,27.22,2.77-8.31-13.95,6.66-3.96,13.86,23.27-6.54,3.9-27.29-2.89Z"/>
    <path class="st2" d="M162.31,800.25l-30.97,20.84-5.27-7.83,30.97-20.84,5.27,7.83ZM162.41,789.59c.26-1.5,1.04-2.69,2.35-3.57,1.3-.88,2.7-1.16,4.19-.83,1.49.33,2.7,1.17,3.63,2.55.93,1.38,1.26,2.82,1,4.32-.26,1.5-1.04,2.69-2.35,3.57-1.31.88-2.7,1.15-4.19.83-1.49-.33-2.7-1.18-3.63-2.56-.93-1.38-1.26-2.82-1-4.32Z"/>
    <path class="st2" d="M179.52,825.27c.43,2.34.33,4.53-.31,6.56l4.2-3.27,5.84,7.49-29.66,23.11c-2.73,2.12-5.59,3.47-8.59,4.05-3,.57-5.98.25-8.95-.97-2.97-1.22-5.67-3.39-8.1-6.5-3.26-4.18-4.95-8.37-5.09-12.56-.13-4.2,1.34-7.78,4.43-10.76l5.75,7.39c-1.04,1.44-1.46,3.11-1.25,5.03.21,1.91,1.03,3.79,2.47,5.64,1.68,2.16,3.7,3.41,6.04,3.75,2.34.34,4.82-.51,7.45-2.56l4.57-3.56c-2.13.12-4.31-.3-6.54-1.27-2.23-.97-4.19-2.53-5.88-4.69-1.93-2.48-3.06-5.25-3.39-8.29s.21-6.07,1.61-9.07c1.4-3,3.6-5.67,6.61-8.01,2.98-2.32,6.08-3.78,9.31-4.39,3.23-.61,6.26-.38,9.08.7,2.83,1.07,5.22,2.86,7.18,5.38,1.71,2.2,2.78,4.47,3.21,6.81ZM172.5,835.34c.74-1.72.99-3.45.74-5.19-.25-1.74-.91-3.31-1.99-4.69-1.08-1.38-2.41-2.39-3.99-3.04-1.58-.64-3.31-.83-5.17-.55-1.86.28-3.68,1.11-5.45,2.49-1.77,1.38-3.04,2.95-3.8,4.71-.76,1.76-1.04,3.51-.82,5.25.21,1.74.85,3.28,1.9,4.63,1.08,1.38,2.43,2.41,4.06,3.07s3.37.85,5.21.55c1.85-.3,3.67-1.15,5.48-2.56,1.81-1.41,3.08-2.97,3.82-4.69Z"/>
    <path class="st2" d="M213.41,867.38c-.15,3.92-2.05,7.61-5.7,11.08l-15.89,15.07-6.49-6.84,14.96-14.19c2.15-2.04,3.29-4.15,3.43-6.32.14-2.17-.68-4.19-2.44-6.05-1.79-1.89-3.79-2.83-5.98-2.83-2.19,0-4.36,1.03-6.52,3.07l-14.96,14.19-6.49-6.84,27.08-25.69,6.49,6.84-3.37,3.2c2.04-.2,4.06.09,6.08.88,2.01.78,3.82,2.02,5.43,3.72,3.06,3.23,4.52,6.8,4.37,10.72Z"/>
    <path class="st2" d="M236.28,911.98l-20.53-17.97c-1.61,2.18-2.29,4.39-2.04,6.63.24,2.24,1.28,4.17,3.1,5.76,2.64,2.31,5.5,2.82,8.6,1.53l7.66,6.7c-3.18,1.99-6.68,2.86-10.5,2.58-3.82-.27-7.41-1.87-10.75-4.8-2.71-2.37-4.6-5.09-5.7-8.17-1.1-3.08-1.28-6.24-.56-9.49.72-3.25,2.34-6.31,4.86-9.18,2.54-2.91,5.37-4.94,8.48-6.1,3.11-1.16,6.24-1.4,9.41-.72,3.16.68,6.13,2.23,8.9,4.66,2.67,2.34,4.56,5.01,5.67,8,1.11,3,1.32,6.06.63,9.2-.68,3.13-2.22,6.07-4.62,8.81-.89,1.01-1.75,1.87-2.6,2.56ZM233.31,900.96c1.56-1.86,2.18-3.89,1.86-6.12-.32-2.22-1.41-4.15-3.27-5.78-1.76-1.54-3.7-2.3-5.83-2.29-2.13.01-4.16.85-6.09,2.51l13.33,11.67Z"/>
    <path class="st2" d="M266.05,908.84c2.24.28,4.36,1.17,6.37,2.69l-5.96,7.91-1.99-1.5c-2.37-1.78-4.57-2.57-6.61-2.36-2.04.21-4.1,1.69-6.18,4.46l-11.18,14.86-7.54-5.67,22.45-29.82,7.54,5.67-3.48,4.63c2.16-.85,4.35-1.14,6.59-.86Z"/>
    <path class="st2" d="M267.52,944.54l13.91,9.14-4.25,6.47-22.86-15.02,4.18-6.36,25.69-9.4-13.57-8.92,4.26-6.48,22.64,14.88-4.18,6.36-25.8,9.33Z"/>
    <path class="st2" d="M306.74,975.55c-1.84-2.19-2.96-4.57-3.37-7.14-.41-2.57.02-5.15,1.27-7.74l9.02,4.57c-.75,1.79-.83,3.46-.24,5.02.59,1.56,1.85,2.83,3.78,3.8,1.96.99,3.74,1.31,5.34.93,1.6-.37,2.78-1.32,3.56-2.84.63-1.24.76-2.46.41-3.64-.36-1.19-.99-2.3-1.9-3.34-.91-1.04-2.22-2.35-3.94-3.92-2.32-2.18-4.13-4.09-5.44-5.74-1.31-1.64-2.17-3.57-2.59-5.77-.42-2.2.04-4.63,1.38-7.27,1.26-2.48,2.97-4.33,5.15-5.55,2.17-1.21,4.63-1.74,7.38-1.59,2.74.15,5.55.96,8.44,2.42,4.33,2.19,7.31,5.02,8.95,8.5s1.65,7.17.02,11.07l-9.26-4.69c.65-1.48.64-2.99-.02-4.5-.67-1.52-1.94-2.76-3.82-3.71-1.64-.83-3.17-1.08-4.58-.73-1.41.34-2.52,1.32-3.33,2.92-.57,1.12-.67,2.24-.3,3.36.37,1.12.98,2.19,1.85,3.2.87,1.02,2.15,2.33,3.85,3.95,2.32,2.18,4.14,4.11,5.46,5.78,1.32,1.67,2.19,3.63,2.62,5.86.43,2.23-.01,4.65-1.33,7.26-1.14,2.25-2.77,4.03-4.91,5.37-2.14,1.34-4.62,2.01-7.44,2.01-2.82,0-5.78-.77-8.86-2.33-2.93-1.48-5.31-3.32-7.14-5.5Z"/>
    <path class="st2" d="M359.59,968.98l-6.99,16.65c-.49,1.16-.56,2.12-.22,2.87.34.75,1.17,1.41,2.5,1.96l4.04,1.7-3.08,7.33-5.47-2.29c-7.33-3.08-9.5-8.18-6.51-15.3l6.96-16.59-4.1-1.72,3-7.15,4.1,1.72,3.57-8.51,8.76,3.68-3.57,8.51,7.71,3.23-3,7.15-7.71-3.23Z"/>
    <path class="st2" d="M409.03,978.48l-11.81,35.41-9.01-3.01,1.49-4.47c-1.66,1.15-3.57,1.85-5.71,2.11-2.15.25-4.3.02-6.48-.71-2.77-.92-5.03-2.33-6.76-4.21-1.74-1.88-2.84-4.17-3.29-6.85-.46-2.68-.16-5.6.9-8.76l6.93-20.78,8.95,2.99-6.5,19.5c-.94,2.81-.96,5.21-.05,7.19.9,1.98,2.57,3.38,5,4.19,2.47.82,4.66.71,6.57-.33,1.91-1.04,3.34-2.97,4.27-5.78l6.5-19.5,9.01,3.01Z"/>
    <path class="st2" d="M414.66,988.91c2.12-2.51,4.63-4.24,7.52-5.19,2.89-.95,5.89-1.07,9-.35,2.36.54,4.5,1.58,6.41,3.1,1.91,1.52,3.3,3.28,4.18,5.28l3.97-17.27,9.33,2.14-11.16,48.6-9.33-2.14,1.24-5.38c-1.55,1.53-3.48,2.61-5.79,3.23-2.31.62-4.82.62-7.54,0-3.06-.7-5.69-2.14-7.86-4.29-2.18-2.16-3.67-4.84-4.48-8.05-.81-3.2-.79-6.67.07-10.39.84-3.68,2.33-6.77,4.45-9.28ZM438.82,998.85c-.51-1.8-1.41-3.3-2.7-4.49-1.29-1.2-2.79-1.99-4.5-2.38-1.71-.39-3.38-.34-5.01.16-1.64.5-3.09,1.45-4.35,2.84s-2.15,3.18-2.65,5.37c-.5,2.19-.49,4.21.03,6.06.52,1.85,1.41,3.38,2.68,4.59,1.27,1.21,2.73,2.01,4.39,2.39,1.71.39,3.4.33,5.09-.18,1.68-.51,3.15-1.47,4.39-2.86,1.24-1.4,2.12-3.21,2.63-5.45.51-2.23.52-4.25,0-6.05Z"/>
    <path class="st2" d="M469.81,991.43l-5.83,36.87-9.32-1.47,5.83-36.87,9.32,1.47ZM462.06,984.1c-.92-1.21-1.26-2.6-1.01-4.15.25-1.55.99-2.76,2.25-3.63,1.25-.87,2.7-1.18,4.34-.92,1.64.26,2.92,1,3.85,2.21.92,1.22,1.26,2.6,1.01,4.15-.25,1.55-1,2.77-2.25,3.64-1.25.87-2.7,1.18-4.34.92-1.64-.26-2.92-1-3.85-2.21Z"/>
    <path class="st2" d="M481.68,1028.88c-2.72-1.85-4.76-4.3-6.13-7.36-1.37-3.06-1.88-6.49-1.53-10.29.35-3.8,1.49-7.08,3.43-9.84,1.94-2.75,4.44-4.79,7.49-6.12,3.05-1.32,6.37-1.82,9.95-1.5,3.58.33,6.75,1.42,9.51,3.27,2.76,1.85,4.85,4.31,6.26,7.37,1.41,3.06,1.95,6.49,1.6,10.29-.35,3.8-1.51,7.08-3.5,9.83-1.99,2.75-4.52,4.79-7.59,6.11-3.08,1.32-6.42,1.82-10.05,1.49-3.58-.33-6.73-1.41-9.45-3.26ZM496.78,1023.15c1.57-.69,2.88-1.82,3.93-3.4,1.04-1.57,1.68-3.54,1.89-5.92.32-3.53-.36-6.34-2.04-8.41-1.68-2.07-3.87-3.23-6.55-3.47-2.68-.24-5.02.5-7,2.24-1.98,1.74-3.14,4.37-3.46,7.91-.32,3.54.31,6.33,1.91,8.39,1.59,2.06,3.73,3.22,6.42,3.46,1.7.15,3.34-.11,4.91-.8Z"/>
  </g>
  <g>
    <path class="st2" d="M703.22,994.45l-17.68,6.19.04,9.48-9.35,3.27.39-50.04,10.37-3.63,31.53,38.86-9.41,3.3-5.89-7.43ZM698.31,988.18l-12.93-16.32.08,20.82,12.85-4.5Z"/>
    <path class="st2" d="M714.65,945.58l19.75,45.78-8.66,3.74-19.75-45.78,8.66-3.74Z"/>
    <path class="st2" d="M740.74,948.3c1.37-1.99,3.28-3.62,5.71-4.88,2.83-1.46,5.76-2.08,8.78-1.87,3.02.22,5.86,1.27,8.52,3.15,2.67,1.89,4.87,4.53,6.62,7.92,1.75,3.4,2.63,6.75,2.64,10.05,0,3.3-.76,6.27-2.32,8.89-1.56,2.62-3.75,4.66-6.59,6.12-2.44,1.26-4.84,1.86-7.21,1.82-2.37-.04-4.53-.52-6.47-1.45l10.58,20.55-8.39,4.32-25.24-49,8.39-4.32,2.47,4.79c.3-2.07,1.13-4.11,2.5-6.1ZM757.91,952.49c-1.57-1.04-3.22-1.59-4.95-1.66-1.73-.07-3.37.3-4.93,1.1-1.52.78-2.75,1.91-3.68,3.37-.94,1.47-1.43,3.15-1.49,5.05-.06,1.9.43,3.85,1.46,5.84s2.33,3.52,3.91,4.58c1.58,1.06,3.24,1.63,4.98,1.72s3.37-.26,4.88-1.04c1.56-.8,2.8-1.95,3.73-3.43.93-1.49,1.42-3.18,1.48-5.08.06-1.9-.44-3.87-1.49-5.9-1.03-2-2.33-3.51-3.9-4.55Z"/>
    <path class="st2" d="M791.35,918.9c2.52-.15,4.95.45,7.29,1.8,2.34,1.35,4.42,3.44,6.25,6.28l11.86,18.41-7.93,5.11-11.17-17.34c-1.61-2.49-3.46-4.01-5.57-4.55-2.11-.54-4.24-.11-6.39,1.27-2.19,1.41-3.49,3.2-3.89,5.35-.4,2.16.2,4.48,1.81,6.97l11.16,17.33-7.93,5.11-27-41.92,7.93-5.11,9.3,14.45c.14-2.02.82-3.96,2.02-5.83s2.84-3.47,4.92-4.81c2.38-1.53,4.83-2.37,7.35-2.53Z"/>
    <path class="st2" d="M807.89,916.32c-.63-3.22-.42-6.25.63-9.09,1.05-2.84,2.83-5.24,5.33-7.22,2.18-1.73,4.44-2.8,6.78-3.22,2.33-.42,4.53-.34,6.57.21l-3.3-4.17,7.45-5.9,23.17,29.27-7.45,5.9-3.39-4.28c.14,2.13-.28,4.3-1.24,6.52-.96,2.22-2.54,4.2-4.72,5.93-2.47,1.95-5.21,3.09-8.24,3.43-3.03.33-6.05-.18-9.05-1.56-3.01-1.37-5.69-3.56-8.06-6.55-2.34-2.96-3.83-6.05-4.46-9.28ZM830.76,903.68c-1.72-.73-3.45-.96-5.2-.7s-3.3.94-4.67,2.02c-1.37,1.09-2.38,2.43-3.01,4.01-.63,1.59-.8,3.31-.51,5.17.3,1.86,1.14,3.67,2.54,5.43,1.39,1.76,2.97,3.02,4.74,3.77,1.77.75,3.52,1.01,5.26.78,1.74-.23,3.28-.87,4.61-1.93,1.37-1.09,2.39-2.45,3.04-4.08.65-1.63.82-3.37.51-5.22-.31-1.84-1.18-3.66-2.6-5.46s-2.99-3.06-4.71-3.79Z"/>
    <path class="st2" d="M883.47,889.02l-18.32-4.31,4.37,17.8-7.65,7.4-5.83-27.36-27.01-6.32,7.8-7.54,18.27,4.26-4.37-17.71,7.65-7.4,5.83,27.26,27.06,6.37-7.8,7.54Z"/>
    <path class="st2" d="M892.5,811.28c3.84-1.75,7.79-2.33,11.86-1.74,4.07.6,7.96,2.36,11.67,5.27,3.71,2.92,6.32,6.27,7.83,10.05,1.51,3.79,1.87,7.75,1.07,11.89-.8,4.14-2.72,8.16-5.78,12.04l-10.16,12.93-36.98-29.06,10.16-12.93c3.05-3.88,6.5-6.71,10.33-8.46ZM916.53,832.61c-.45-3.78-2.61-7.19-6.46-10.21-3.85-3.03-7.69-4.33-11.53-3.92-3.84.41-7.28,2.56-10.34,6.45l-4.12,5.24,24.42,19.19,4.12-5.25c3.05-3.89,4.35-7.72,3.9-11.51Z"/>
    <path class="st2" d="M944.91,783.99l-14.72,22.98c2.39,1.27,4.68,1.61,6.86,1.04,2.18-.58,3.93-1.88,5.24-3.93,1.89-2.95,1.97-5.86.23-8.73l5.49-8.57c2.44,2.85,3.82,6.18,4.12,10,.3,3.82-.75,7.6-3.15,11.35-1.94,3.03-4.35,5.31-7.23,6.85-2.88,1.54-5.98,2.2-9.3,1.96-3.32-.23-6.58-1.38-9.8-3.44-3.25-2.08-5.68-4.58-7.29-7.47-1.61-2.9-2.31-5.96-2.11-9.2.2-3.23,1.3-6.4,3.29-9.5,1.91-2.99,4.27-5.25,7.07-6.79,2.8-1.54,5.8-2.2,9-1.99s6.33,1.3,9.39,3.26c1.13.73,2.11,1.46,2.92,2.19ZM934.45,788.58c-2.07-1.27-4.17-1.58-6.32-.93-2.15.65-3.89,2.01-5.23,4.09-1.26,1.97-1.72,4-1.39,6.11.33,2.11,1.46,3.99,3.38,5.65l9.56-14.92Z"/>
    <path class="st2" d="M959.8,773.38l7.85-14.68,6.83,3.65-12.9,24.13-6.71-3.59-11.68-24.74-7.66,14.32-6.83-3.65,12.77-23.89,6.71,3.59,11.62,24.86Z"/>
    <path class="st2" d="M939.07,735.67c-1.42.55-2.84.5-4.27-.17-1.42-.66-2.38-1.72-2.88-3.16-.49-1.44-.39-2.92.32-4.43.7-1.5,1.77-2.53,3.19-3.09,1.42-.55,2.85-.49,4.27.17,1.42.66,2.38,1.72,2.88,3.16.49,1.44.38,2.92-.32,4.43-.7,1.51-1.76,2.54-3.19,3.09ZM948.26,730.24l33.83,15.78-3.99,8.55-33.83-15.78,3.99-8.55Z"/>
    <path class="st2" d="M960.82,702.62c1.79-1.57,3.71-2.61,5.79-3.11l-4.97-1.91,3.42-8.87,35.08,13.52c3.23,1.24,5.86,3,7.89,5.28,2.04,2.28,3.3,5,3.78,8.17s.02,6.6-1.4,10.29c-1.91,4.95-4.62,8.56-8.15,10.83-3.53,2.28-7.36,2.86-11.5,1.74l3.37-8.74c1.77.15,3.42-.35,4.96-1.52,1.53-1.17,2.72-2.84,3.56-5.02.99-2.56,1.02-4.93.1-7.11-.92-2.18-2.93-3.87-6.03-5.07l-5.41-2.08c1.2,1.76,1.96,3.85,2.28,6.26.32,2.41,0,4.9-.99,7.45-1.13,2.93-2.92,5.33-5.37,7.18-2.45,1.85-5.31,2.95-8.6,3.29-3.29.35-6.71-.17-10.28-1.54-3.52-1.36-6.37-3.26-8.56-5.72-2.18-2.45-3.54-5.17-4.08-8.14-.54-2.98-.23-5.95.91-8.93,1-2.6,2.4-4.69,4.18-6.26ZM973.07,703.44c-1.85.25-3.46.93-4.83,2.04-1.37,1.11-2.37,2.48-3,4.12-.63,1.63-.81,3.3-.55,4.99.26,1.69.99,3.26,2.19,4.71,1.2,1.45,2.85,2.58,4.94,3.38,2.1.81,4.1,1.09,6,.83,1.9-.25,3.54-.92,4.92-2,1.38-1.08,2.38-2.42,2.99-4.01.63-1.63.81-3.32.54-5.06-.27-1.74-1.01-3.32-2.21-4.75-1.21-1.43-2.88-2.55-5.02-3.38s-4.13-1.11-5.99-.86Z"/>
    <path class="st2" d="M979.5,651.88c3.44-1.88,7.58-2.15,12.43-.8l21.1,5.88-2.53,9.09-19.86-5.53c-2.86-.8-5.25-.69-7.19.31-1.93,1-3.25,2.73-3.93,5.2-.7,2.51-.48,4.7.65,6.58,1.13,1.88,3.13,3.21,5.98,4.01l19.86,5.54-2.53,9.09-35.96-10.02,2.53-9.09,4.48,1.25c-1.22-1.65-2.01-3.53-2.38-5.66-.36-2.13-.23-4.32.4-6.57,1.19-4.28,3.51-7.37,6.95-9.26Z"/>
    <path class="st2" d="M1006.02,609.35l-4.88,26.85c2.69.26,4.94-.29,6.74-1.65,1.8-1.36,2.92-3.24,3.35-5.62.63-3.45-.41-6.17-3.1-8.17l1.82-10.01c3.34,1.7,5.88,4.27,7.61,7.68,1.73,3.42,2.2,7.32,1.4,11.69-.64,3.54-2,6.57-4.08,9.09-2.08,2.52-4.7,4.31-7.86,5.35-3.16,1.05-6.62,1.23-10.37.55-3.8-.69-7-2.07-9.59-4.14-2.59-2.07-4.41-4.64-5.45-7.7-1.04-3.06-1.23-6.41-.57-10.04.63-3.49,1.96-6.48,3.96-8.97,2-2.49,4.53-4.25,7.57-5.27,3.04-1.02,6.35-1.21,9.93-.56,1.33.24,2.5.55,3.53.92ZM998.09,617.57c-2.39-.39-4.46.13-6.21,1.54-1.74,1.42-2.83,3.34-3.27,5.77-.42,2.3-.07,4.36,1.03,6.18,1.11,1.82,2.87,3.14,5.28,3.94l3.17-17.44Z"/>
    <path class="st2" d="M988.05,585.39c-.91-2.06-1.23-4.34-.97-6.84l9.85,1.05-.26,2.48c-.31,2.95.14,5.24,1.37,6.89,1.23,1.64,3.56,2.65,7,3.01l18.49,1.97-1,9.38-37.12-3.95,1-9.38,5.76.61c-1.84-1.42-3.21-3.16-4.12-5.22Z"/>
    <path class="st2" d="M1017.92,565.8l.7-16.63,7.74.32-1.14,27.33-7.61-.32-21.27-17.21-.68,16.22-7.74-.32,1.13-27.06,7.61.32,21.26,17.35Z"/>
    <path class="st2" d="M1024.36,516.21c-.93,2.7-2.39,4.89-4.39,6.57-2,1.68-4.43,2.64-7.29,2.89l-.73-10.08c1.92-.27,3.39-1.07,4.42-2.38,1.03-1.31,1.47-3.04,1.31-5.2-.16-2.19-.81-3.88-1.95-5.06-1.14-1.18-2.57-1.71-4.27-1.58-1.39.1-2.5.61-3.33,1.52-.83.92-1.46,2.03-1.89,3.35-.42,1.32-.87,3.11-1.33,5.4-.68,3.11-1.38,5.65-2.12,7.62-.74,1.97-1.94,3.7-3.61,5.19-1.67,1.5-3.99,2.35-6.94,2.56-2.78.2-5.25-.32-7.41-1.56-2.16-1.24-3.88-3.08-5.16-5.51-1.28-2.43-2.04-5.26-2.27-8.48-.35-4.84.54-8.86,2.68-12.05,2.13-3.19,5.3-5.1,9.48-5.72l.75,10.35c-1.61.21-2.89.99-3.85,2.34-.96,1.35-1.37,3.08-1.21,5.19.13,1.84.71,3.27,1.73,4.3,1.02,1.03,2.43,1.48,4.22,1.35,1.25-.09,2.27-.58,3.04-1.47.77-.89,1.37-1.97,1.79-3.24.43-1.27.89-3.05,1.4-5.34.68-3.11,1.39-5.66,2.15-7.65.76-1.99,1.98-3.75,3.67-5.27,1.69-1.52,4-2.38,6.91-2.59,2.51-.18,4.89.3,7.13,1.45,2.24,1.14,4.1,2.92,5.55,5.34,1.46,2.42,2.31,5.35,2.56,8.8.24,3.27-.11,6.26-1.04,8.96Z"/>
    <path class="st2" d="M991.5,474.29l17.87-2.6c1.25-.18,2.1-.61,2.57-1.29.47-.68.6-1.73.39-3.16l-.63-4.33,7.87-1.15.85,5.87c1.15,7.87-2.1,12.36-9.75,13.47l-17.8,2.59.64,4.4-7.67,1.12-.64-4.4-9.14,1.33-1.37-9.4,9.13-1.33-1.2-8.27,7.67-1.12,1.2,8.27Z"/>
    <path class="st2" d="M974.12,427.04l36.42-8.17,2.08,9.27-4.6,1.03c1.84.83,3.43,2.1,4.75,3.8,1.33,1.71,2.24,3.67,2.74,5.91.64,2.85.6,5.5-.11,7.97-.71,2.46-2.1,4.58-4.17,6.35-2.06,1.78-4.72,3.03-7.96,3.75l-21.37,4.79-2.07-9.21,20.05-4.5c2.89-.65,4.96-1.87,6.19-3.67,1.23-1.8,1.57-3.94,1.01-6.44-.57-2.54-1.79-4.36-3.68-5.46-1.88-1.1-4.27-1.32-7.16-.67l-20.05,4.5-2.08-9.27Z"/>
    <path class="st2" d="M980.13,416.84c-3.24-.52-6.02-1.77-8.32-3.76-2.31-1.98-3.96-4.49-4.95-7.52-.76-2.31-.97-4.67-.66-7.09.32-2.42,1.11-4.52,2.36-6.31l-16.84,5.52-2.98-9.09,47.38-15.54,2.98,9.09-5.25,1.72c2.11.54,4.03,1.63,5.76,3.29,1.72,1.66,3.02,3.81,3.89,6.45.98,2.99,1.11,5.97.38,8.95-.72,2.98-2.25,5.64-4.58,7.99-2.33,2.35-5.3,4.12-8.93,5.31-3.58,1.18-7,1.5-10.24.98ZM976.17,391.02c-1.28,1.37-2.09,2.91-2.45,4.63-.36,1.73-.26,3.42.28,5.08.55,1.66,1.46,3.07,2.73,4.21,1.27,1.14,2.83,1.9,4.68,2.26,1.85.36,3.83.2,5.97-.5,2.14-.7,3.86-1.75,5.17-3.15,1.31-1.4,2.16-2.96,2.55-4.67.39-1.71.31-3.38-.22-5-.54-1.66-1.47-3.09-2.78-4.26-1.31-1.18-2.88-1.94-4.72-2.28-1.84-.34-3.84-.16-6.02.56-2.18.71-3.9,1.75-5.18,3.12Z"/>
    <path class="st2" d="M951.7,378.97c-.54,1.42-1.54,2.44-2.99,3.05-1.45.61-2.87.62-4.27.01-1.4-.6-2.42-1.67-3.07-3.2-.65-1.53-.7-3.01-.15-4.43.54-1.42,1.54-2.44,2.99-3.05,1.45-.61,2.87-.62,4.27-.01,1.4.6,2.42,1.67,3.07,3.2.65,1.53.7,3.01.15,4.43ZM953.83,368.52l34.39-14.52,3.67,8.69-34.39,14.52-3.67-8.69Z"/>
    <path class="st2" d="M979.8,338.83c-.18,3.28-1.24,6.3-3.15,9.04-1.92,2.75-4.59,4.95-8.03,6.61-3.44,1.66-6.84,2.37-10.2,2.12-3.36-.25-6.39-1.34-9.1-3.27-2.71-1.93-4.84-4.52-6.4-7.76-1.56-3.24-2.26-6.51-2.1-9.84.17-3.32,1.2-6.38,3.09-9.17,1.9-2.79,4.56-5.01,8-6.67,3.44-1.66,6.85-2.35,10.23-2.06,3.38.29,6.43,1.41,9.15,3.36,2.72,1.96,4.86,4.57,6.45,7.85,1.56,3.24,2.25,6.5,2.07,9.78ZM967.11,328.84c-1.4-.99-3.05-1.53-4.94-1.62-1.89-.09-3.9.39-6.05,1.42-3.2,1.54-5.25,3.57-6.16,6.08-.91,2.51-.78,4.98.4,7.4s3.01,4.04,5.52,4.85c2.51.81,5.36.44,8.56-1.1,3.2-1.54,5.27-3.53,6.21-5.96.95-2.43.84-4.86-.34-7.28-.74-1.54-1.81-2.8-3.22-3.8Z"/>
  </g>
  <g>
    <circle class="st3" cx="586.4" cy="1009.72" r="15.38"/>
    <circle class="st3" cx="106.67" cy="353.86" r="15.38"/>
    <circle class="st3" cx="914.52" cy="266.33" r="15.38"/>
  </g>
  <circle class="st1" cx="540" cy="540.01" r="388.24"/>
  <g>
    <polygon class="st2" points="778.97 295.25 778.52 295.58 779.22 295.58 778.97 295.25"/>
    <polygon class="st2" points="775.86 297.45 778.52 295.58 681.15 295.58 632.2 372.55 562.07 488.31 480.21 361.69 245 748.89 340.66 748.89 483.83 513.68 516.51 563.53 404.22 748.89 503.97 748.89 568.05 642.15 638.02 748.89 730.53 748.89 613.06 567.18 729.9 372.55 775.86 297.45"/>
  </g>
  <polygon class="st3" points="695.49 694.69 661.69 748.91 638.02 748.91 599.08 690.27 644.93 616.48 695.49 694.69"/>
</svg>